<svg xmlns="http://www.w3.org/2000/svg" width="269" height="60" fill="none"><path fill="#A27B5C" d="M76.9 47.5 65 32H62v15.5h-6.5V12H62v14.7h1.6l12.7-14.7h8L70 28.2l14.7 19.3h-8Zm21.7.6a13 13 0 0 1-6.8-1.8c-1.9-1.1-3.4-2.7-4.4-4.8-1-2-1.6-4.5-1.6-7.2 0-2.8.5-5.2 1.6-7.3 1-2 2.5-3.7 4.4-4.8a13 13 0 0 1 6.8-1.7c2.6 0 4.9.5 6.8 1.7 2 1.1 3.4 2.7 4.4 4.8 1.1 2 1.6 4.5 1.6 7.3 0 2.7-.5 5.1-1.6 7.2-1 2-2.5 3.7-4.4 4.8a13 13 0 0 1-6.8 1.8Zm0-5c1.5 0 2.7-.5 3.6-1.3a7 7 0 0 0 2.1-3.1c.5-1.4.7-2.8.7-4.4a13 13 0 0 0-.7-4.5 7 7 0 0 0-2-3.2c-1-.8-2.2-1.2-3.6-1.2-1.5 0-2.7.4-3.7 1.2-1 .8-1.6 1.9-2.1 3.2-.5 1.3-.7 2.8-.7 4.5 0 1.6.2 3 .7 4.4a7.2 7.2 0 0 0 2.1 3.1c1 .8 2.2 1.2 3.7 1.2ZM129 56.5V12h6.3v44.7H129Zm0-8.6c-2 0-3.7-.3-5.4-1a12.2 12.2 0 0 1-7-7.1c-.5-1.7-.9-3.6-.9-5.6 0-2 .3-4 1-5.7a12.1 12.1 0 0 1 7-7.2c1.6-.6 3.3-1 5.3-1h1.3V48H129Zm0-5h.8V25.5h-.8a6.1 6.1 0 0 0-5 2.6 9 9 0 0 0-1.4 2.8 12.5 12.5 0 0 0 .4 7.7 7.4 7.4 0 0 0 2.3 3.2 6 6 0 0 0 3.7 1.2Zm6.3 5H134V20.4h1.3c2 0 3.8.4 5.4 1a12.5 12.5 0 0 1 7 7.2c.6 1.7.9 3.6.9 5.7 0 2-.3 3.9-1 5.6a12.5 12.5 0 0 1-6.9 7.2c-1.6.6-3.4 1-5.4 1Zm0-5c1.2 0 2.1-.3 3-.7.8-.5 1.5-1 2.1-1.9.6-.8 1-1.7 1.3-2.8a12.7 12.7 0 0 0-.3-7.7 7.2 7.2 0 0 0-2.3-3.2c-1-.8-2.3-1.2-3.8-1.2h-.8V43h.8Zm30.5 5c-2.7 0-5-.5-7-1.6-2-1.2-3.4-2.7-4.5-4.8a16 16 0 0 1-1.5-7.3c0-2.7.5-5.2 1.5-7.2a11.8 11.8 0 0 1 11.1-6.7c1.7 0 3.2.3 4.7.8a11.4 11.4 0 0 1 6.6 6.6 17 17 0 0 1 1 6.1v2h-22v-4.3h15.9c0-1.2-.3-2.3-.8-3.2-.5-1-1.2-1.7-2.1-2.2a6 6 0 0 0-3.2-.9 6.5 6.5 0 0 0-5.7 3.4 7 7 0 0 0-.8 3.3v3.7c0 1.6.3 3 .9 4a6 6 0 0 0 2.4 2.6c1 .5 2.2.8 3.5.8 1 0 1.8-.1 2.5-.4.8-.2 1.4-.6 2-1.1.5-.5 1-1.2 1.2-2l5.9.7c-.4 1.6-1.1 3-2.1 4.1-1 1.2-2.4 2-4 2.7-1.6.6-3.5 1-5.5 1Zm23.2-9 10.7-18.2h6.5v26.7h-6V29.3l-10.7 18.2h-6.5V20.8h6V39Zm9-27.4h4.7c0 2-.7 3.7-2.2 5a8.8 8.8 0 0 1-6 1.8c-2.4 0-4.4-.6-5.9-1.9a6.2 6.2 0 0 1-2.1-4.9h4.6c0 .8.3 1.6.8 2.2.5.7 1.4 1 2.7 1 1.2 0 2-.3 2.6-1 .5-.6.8-1.4.8-2.2Zm33 20v5.1h-14.2v-5.2h14.2Zm-12.3-10.8v26.7h-6V20.8h6Zm16.5 0v26.7h-6l-.1-26.7h6Zm22.1 26.7V25.9h-5.7a5 5 0 0 0-3.3 1c-.8.7-1.2 1.5-1.2 2.5a3 3 0 0 0 1.1 2.5c.8.6 1.8 1 3.2 1h8v4.5h-8c-2.1 0-4-.3-5.5-1a7.5 7.5 0 0 1-4.8-7.2c0-1.7.4-3.1 1.2-4.4.9-1.3 2-2.3 3.7-3 1.6-.7 3.4-1 5.6-1h11.6v26.7h-5.9Zm-17.2 0 7.4-13.7h6.2l-7.4 13.7H240Z"/><path fill="#413125" d="M13 11.6h25a4 4 0 0 1 4 4V27c0 7.6-5.9 14.3-13.6 14.5a14 14 0 0 1-14.4-14v-2h-1a7 7 0 0 1 0-14Zm5 4v6h20v-6H18Zm-5 6h1v-6h-1a3 3 0 1 0 0 6Zm29 22H10v4h32v-4Z"/></svg>