<svg xmlns="http://www.w3.org/2000/svg" width="90" height="90" fill="none"><circle cx="45" cy="45" r="44" fill="#293233"/><path fill="#fff" stroke="#fff" d="M42.7 56.7h18.6v-.5c0-.7-.5-2.5-1.9-4.2-1.3-1.5-3.6-3-7.6-3-4 0-6.4 1.5-7.7 3a7.4 7.4 0 0 0-1.9 4.2v.5h.5Zm-3-8.9c.7 0 1.3.2 1.9.3a10.8 10.8 0 0 0-3.8 8.1c0 .6 0 1.2.2 1.8h-8.8c-.6 0-1-.2-1.3-.4-.2-.3-.4-.7-.4-1.4 0-1 .5-3 2.1-5 1.6-1.8 4.3-3.5 8.6-3.5l1.6.1Zm-1.1 1.7v-1.7l-.8 1.2c-3.7.1-6 1.5-7.2 3a7.4 7.4 0 0 0-1.9 4.3v.5h7.8v-.5c0-2.3.7-4.4 1.8-6.3h.3v-.5Zm23.9 6.8c0 .4-.1.7-.3 1l-.5.5a2.3 2.3 0 0 1-1 .2h-18a2.3 2.3 0 0 1-.9-.2l-.5-.5c-.2-.3-.3-.6-.3-1 0-1 .5-3.2 2.1-5 1.6-2 4.3-3.5 8.6-3.5 4.4 0 7 1.6 8.7 3.4 1.6 2 2.1 4 2.1 5Zm-10.8-13a5 5 0 1 0 0-10 5 5 0 0 0 0 10Zm6.3-5a6.2 6.2 0 1 1-12.5 0 6.2 6.2 0 0 1 12.5 0Zm-27.1 1a6.2 6.2 0 1 1 12.5 0 6.2 6.2 0 0 1-12.5 0Zm6.2-5a5 5 0 1 0 0 10 5 5 0 0 0 0-10Z"/><circle cx="59" cy="55" r="8" fill="#293233" stroke="#fff" stroke-width="2"/><path stroke="#fff" stroke-width="2" d="M59 51v8M55 55h8"/></svg>