<svg xmlns="http://www.w3.org/2000/svg" width="250" height="200" fill="none"><g clip-path="url(#a)"><path fill="#F5B857" d="M146.2 94h4.8c17.4 0 31.7 4 44.4 16.5 8.8 9.3 14 22.2 14.1 35v1c0 2.8-.6 4.9-2.5 7l-.7.6-.7.5c-2.3 1.6-4.5 1.5-7.2 1.5a9806.5 9806.5 0 0 1-5.8 0H155.1a6406 6406 0 0 0-57.2.1h-1.2c-2.9 0-5.1-.7-7.5-2.3-3-3.2-2.6-7-2.5-11.1 0-3.1.5-6 1.3-9l.2-1a55.7 55.7 0 0 1 14.4-24.1 48 48 0 0 1 19.6-12l1-.4c7.5-2.4 15.2-2.3 23-2.3ZM166.3 20l1 .6c8 5 12.8 12.8 15.1 21.6 2 9.2.6 18.7-4.2 26.8-1.2 2-2.6 3.7-4 5.4l-.9.9c-4 4.3-9.3 7.1-14.8 9l-1.2.4a35.4 35.4 0 0 1-43-23.5l-.5-1.2c-2.6-9-.9-19 3.3-27.3 5-8.3 12.6-14.2 22-16.8 9.5-2.3 18.8-.8 27.2 4Z"/><path fill="#F3AD3E" d="m87.6 20 1 .6c7.9 5 12.8 12.8 15 21.6 2.1 9.2.6 18.7-4.1 26.8-1.3 2-2.7 3.7-4.1 5.4l-.8.9a34.5 34.5 0 0 1-16 9.4 35.4 35.4 0 0 1-43.1-23.5L35 60c-2.6-9-1-19 3.3-27.3C43.3 24.4 51 18.6 60.3 16c9.5-2.3 18.8-.8 27.3 4ZM67.9 94h3.4c6.5 0 12.6.9 18.7 3a9 9 0 0 1-2.1 3 65.7 65.7 0 0 0-18 45.5v1.2c-.1 2.2.2 4.3.7 6.5 0 .6.2 1 .3 1.6l.3 1.2a5766.5 5766.5 0 0 1-44.6.2c-3 0-5.2-.5-7.5-2.6l-.6-.7-.6-.7c-3-4.8-1.7-13.5-.6-18.8.8-3.6 2-7 3.4-10.4l.3-.8A49.8 49.8 0 0 1 48.4 97c6.4-2.3 12.7-3 19.5-3Z"/><path fill="#FCEBCF" d="M187.3 125.2c5.1-9.3 15-14.8 20.8-23 6.1-8.7 2.7-24.9-14.6-24.9-11.3 0-17 8.6-19.3 15.7L157 85.7A38 38 0 0 1 193.4 59c15.8 0 26.6 7.2 32.1 16.2 4.7 7.7 7.4 22.1.2 32.9-8 11.8-15.8 15.5-20 23.1-1.6 3-2.3 5.1-2.3 15H184c0-5.2-.8-13.7 3.3-21.1Zm19.6 48c0 7.3-6 13.4-13.4 13.4s-13.4-6-13.4-13.4 6-13.4 13.4-13.4 13.4 6 13.4 13.4Z"/></g><defs><clipPath id="a"><path fill="#fff" d="M0 0h250v200H0z"/></clipPath></defs></svg>