<svg xmlns="http://www.w3.org/2000/svg" width="250" height="250" fill="none"><path fill="#D88A0D" d="m126.7 16.4 2.4 1.1 1.4.7a4502.5 4502.5 0 0 1 29.9 15.4l1.2.7 9.1 4.7a2063.2 2063.2 0 0 0 43.5 22.2l12.3 6.2 1 .4 1.6.9c1.9.9 1.9.9 2.3 1.4l.1 1.7V100.6a30037.7 30037.7 0 0 1 0 32.4v47l-4 2-1 .6a614.4 614.4 0 0 1-8.9 4.5l-2.4 1.3-6.6 3.3-1.4.7a6826.1 6826.1 0 0 0-50.1 25.7l-17.9 9.1-2.5 1.3-3.5 1.8-1 .5a321.2 321.2 0 0 1-3.9 2 6.7 6.7 0 0 1-3.7 1.2c-1.6-.5-3-1.2-4.4-1.9l-1-.5-2.8-1.4-2-1a557 557 0 0 1-10.8-5.6l-9.3-4.7-8.8-4.6a564 564 0 0 1-58.9-30.1l-8-4.3V70.1c4.6-2.5 9.3-5 14-7.3a483.5 483.5 0 0 0 20.9-10.6l8.9-4.6L75.7 41 86 35.6l11.7-6 6.6-3.4 1.3-.7c5-2.5 10-5 14.9-7.7l1-.5 1.4-.8c1.5-.6 2.2-.5 3.8 0Z"/><path fill="#F5B857" d="m126.7 16.4 2.4 1.1 1.4.7a4502.5 4502.5 0 0 1 29.9 15.4l1.2.7 9.1 4.7a2063.2 2063.2 0 0 0 43.5 22.2 258.7 258.7 0 0 0 12.3 6.2l1.8.8.8.4c1.9 1 1.9 1 2.3 1.9l-.6.3c-18.4 9.3-18.4 9.3-36.6 19l-1 .7-1 .5c-.8.4-.8.4-1.6.4v23.8c-1.5-.3-2.7-.6-4-1.1l-1.1-.4-2.2-.9-1-.4-1-.4c-1.1-.2-1.6-.2-2.7.2l-2.1 2.7-1.3 1.6-.6.9-3 3.6-5.4 6.5c-.8 1-.8 1-1.6 1.3l-.4-23.8-23.3 12a1609.4 1609.4 0 0 1-10 5.2l-1.1.6-2 1.1c-1.3.8-2 1.2-3.6.8a37 37 0 0 1-3.5-1.6l-1.3-.7-1.4-.8-3.1-1.6-.8-.4-9.9-5a3606.3 3606.3 0 0 1-44.8-23.1 6598.6 6598.6 0 0 0-40.8-21c1-1 1.8-1.7 3.1-2.3l1.2-.6L24 67a5057 5057 0 0 1 11-5.4l1.3-.7a397.3 397.3 0 0 0 17-8.7l9-4.6L75.7 41 86 35.6l11.7-6 6.6-3.4 1.3-.7c5-2.5 10-5 14.9-7.7l1-.5 1.4-.8c1.5-.6 2.2-.5 3.8 0Z"/><path fill="#F3AD3E" d="M231.4 70.5v109.4c-9.2 5-9.2 5-12.6 6.6l-1.2.6-2.4 1.3-6.6 3.3-1.4.7a6826.1 6826.1 0 0 0-50.1 25.7l-17.9 9.1-2.5 1.3-3.5 1.8-1 .5a704 704 0 0 1-4 2C126 234 126 234 125 234V125c8.7-4.8 8.7-4.8 13.2-7a381.7 381.7 0 0 0 19.4-10l1.7-1 2.4-1.2 1.4-.7c1-.5 1-.5 1.5-.5l.4 23.8c4-4.5 4-4.5 7.7-9.2l3.8-4.6 2.6-3.2c3.8.8 3.8.8 11.5 3.8V91.4A531.6 531.6 0 0 1 214 79a1530.5 1530.5 0 0 1 11.7-6.1l2.4-1.3 1.4-.7c1-.5 1-.5 2-.5Z"/><path fill="#F5B857" d="m62.8 51.9.8.4a513.4 513.4 0 0 1 14.9 7.6l10.3 5.4 5.8 3 1.1.5 10.5 5.4.9.4.8.5 1.7.9.9.4 6.3 3.3 1 .5 1.9 1a5301.7 5301.7 0 0 1 24.8 12.7l1.1.6a8553 8553 0 0 0 18.6 9.6v.9l-1.3.7a13001.7 13001.7 0 0 0-32 16.5l-1.1.6-2 1.1c-1.3.8-2 1.2-3.6.8a37 37 0 0 1-3.5-1.6l-1.3-.7-1.4-.8-3.1-1.6-.8-.4-9.9-5a3606.3 3606.3 0 0 1-44.8-23.1 6598.6 6598.6 0 0 0-40.8-21c1-1 1.8-1.7 3.1-2.3l1.2-.6L24 67a5057 5057 0 0 1 23.4-11.8l6-3 1.1-.7 1.2-.6 1-.5c2.1-.7 4 .5 6 1.5Z"/><path fill="#F9D69F" d="M86.7 36.9 89 38l1.4.8.8.4a411.8 411.8 0 0 0 14 7.3l3.9 2a19443.8 19443.8 0 0 0 12.2 6.3l1 .5a20247.5 20247.5 0 0 1 27.9 14.3l1 .5 6.5 3.4 6.6 3.4 1.8 1a9969.5 9969.5 0 0 1 16 8.1l1.6.9 1.4.7 5.8 3-.4 24.6c-1.5-.3-2.7-.6-4-1.1l-1.1-.4-2.2-.9-1-.4-1-.4c-1.1-.2-1.6-.2-2.7.2l-2.1 2.7-1.3 1.6-.6.9-3 3.6-5.4 6.5c-.8 1-.8 1-1.6 1.3l-.4-24.2-21.5-11-1-.6-9.3-4.8-4.8-2.5A2469 2469 0 0 1 98.7 71 8245.3 8245.3 0 0 1 58.6 50c1-1.1 2-1.8 3.3-2.4l1.3-.6 1.3-.7 1.4-.7a1939.2 1939.2 0 0 1 11.7-5.8l1.3-.6 1.2-.6 2.7-1.6c1.6-.8 2.2-.8 3.9-.2Z"/><path fill="#F6C26F" d="M190.6 91.8v23.4c-1.5-.3-2.7-.6-4-1.1l-1.1-.4-2.2-.9-1-.4-1-.4c-1.1-.2-1.6-.2-2.7.2l-2.1 2.7-1.3 1.6-.6.9-3 3.6-5.4 6.5c-.8 1-.8 1-1.6 1.3 0-8-.3-16.1-.3-24.3 9.4-5 9.7-4.9 12.9-6.5l1-.5 2.3-1.2 3.5-1.7 2.2-1.1 1-.5c2.4-1.2 2.4-1.2 3.4-1.2Z"/><path fill="#FCEBCF" d="M118.2 118.2C123.8 108 134.7 102 141 93c6.7-9.5 3-27.1-16-27.1-12.4 0-18.5 9.4-21 17.1l-19-8a41.5 41.5 0 0 1 40-29c17.2 0 29 7.8 35 17.7 5.1 8.4 8.1 24.2.2 36-8.8 12.9-17.2 16.8-21.8 25.2-1.8 3.4-2.5 5.6-2.5 16.4h-21.2c-.1-5.7-1-15 3.5-23Zm21.5 52.5a14.7 14.7 0 0 1-29.3 0c0-8.1 6.5-14.7 14.6-14.7 8 0 14.7 6.6 14.7 14.7Z"/></svg>