<svg xmlns="http://www.w3.org/2000/svg" width="250" height="250" fill="none"><g clip-path="url(#a)"><g clip-path="url(#b)"><path fill="#F9D69F" d="M128-2.5c2.5 1.6 4.7 3.6 6.8 5.8l.7.8c4 4 6.5 9.5 8 15l.7-.6a24.7 24.7 0 0 1 18.4-5.4c8 1.3 15 4.8 21 10.3l1 .9A40.5 40.5 0 0 1 194.7 41l18 .5v44h-13V174l2.8 1a53 53 0 0 1 9.3 6.3l.9.7c6.6 5.3 12 14 13.3 22.4.5 6.5-.8 11.2-4.8 16.4a21 21 0 0 1-14.9 7.2c-9.4.2-18.7-3-25.7-9.4l-.8-1c-1.7-2-3.1-2.5-5.7-2.8-2.5-.1-5.1-.2-7.7-.1l-.1 1.7c-.8 6.1-4.9 11-9.5 14.7-9 6.6-20.2 8.2-31.1 7a31.7 31.7 0 0 1-20.2-11.4 20 20 0 0 1-3.5-12H37.6v-129H24.4v-44h19v-6.9a33 33 0 0 1 10.3-18.1l1-1.1A40 40 0 0 1 83.7 5.2c5.4.2 10 2 14.5 5l.3-.8c.8-3 2.2-5.1 4.1-7.5l1-1.3c1-1.3 2.2-2 3.6-3l1.4-.8c6-3.3 13.6-2.5 19.4.7Zm-28.4 43-.5 1h1l-.5-1Z"/><path fill="#F3AD3E" d="M199.2 85.7h.5v88.2l3 1a53 53 0 0 1 9.2 6.3l.9.7c6.6 5.3 12 14 13.3 22.4.5 6.5-.8 11.2-4.8 16.4a21 21 0 0 1-14.9 7.2c-9.4.2-18.7-3-25.7-9.4l-.8-1c-1.7-2-3.1-2.5-5.7-2.8-2.5-.1-5.1-.2-7.7-.1v-1.2a23.3 23.3 0 0 0-7.1-15.1c-9.3-7.1-19.3-8.5-30.6-7.6-5.6.8-11 3.2-15.8 6.4-1.5 1-3.2 1.8-4.9 2.6-1.3.6-1.3.6-2.4 1.9-2 1.8-4.4 1.5-7 1.5H97a303.1 303.1 0 0 1-8.3 0c-8.4 0-15-1-22-6.2l-1-.8a29.6 29.6 0 0 1-10.1-18.3l-.1-3v-2a14022 14022 0 0 1-.1-62.8c0-5.7.5-9.3 4.5-13.6 3.9-3.6 8.2-4 13.3-4h1.6a1395.5 1395.5 0 0 1 17.7 0 7157.2 7157.2 0 0 0 50.7 0h1.2a115679.7 115679.7 0 0 0 54.7.1v-6.8Z"/><path fill="#D88A0D" d="M38 85.7h161.2v6.8a63883.4 63883.4 0 0 1-50 .1h-7a12796 12796 0 0 1-68.7.2H72c-4.8 0-9 1.3-12.6 4.7a12.8 12.8 0 0 0-3.3 9.3v3.9a3859.4 3859.4 0 0 1 0 9.2v2.5a8443.8 8443.8 0 0 0-.2 48.8c0 8.8 2.2 16.7 8.4 23.2 7.7 7 16 8.3 26 8.3h9.7c3.3 0 5-.8 7.5-3 .9-.8 1.6-1.2 2.7-1.7a22 22 0 0 0 4.5-2.5 42 42 0 0 1 31.5-4.5c5 1.4 9 3.6 13 6.9l1 .8c3.4 3 6 8.3 6.4 12.8.2 6-1.5 10.2-5 14.8l-.9 1.2c-5.3 6.3-14 9.6-22 10.6-11 .6-21.4-.7-30.1-8a22.1 22.1 0 0 1-6.5-11.6V214H38V85.7Z"/><path fill="#F5B857" d="M24.4 41.6h13.2v4.9a2851.2 2851.2 0 0 0 .2 14c.1 4.7 1 8.2 4.3 11.6 2.6 2.5 5.1 2.8 8.6 2.9h3.7a2781.5 2781.5 0 0 1 7.6 0h6.1a12214.6 12214.6 0 0 0 74.1.2h8.9l61.3.2V42H100.6v-.5h112.3v44H38v128.5h64v.5H37.6v-129H24.4v-44Z"/><path fill="#413125" d="m197.3 172.9 1.3.4c5.1 1.7 9.2 4.6 13.3 8l.9.6c6.6 5.3 12 14 13.3 22.4.5 6.5-.8 11.2-4.8 16.4a21 21 0 0 1-14.9 7.2c-9.6.2-18.5-3-25.7-9.4l-1.1-.9c-2-1.7-3.4-3.3-4.8-5.5l-1-1.6a33.8 33.8 0 0 1-6.3-23.4c1.6-6.4 5.8-11 11.3-14.4 5.5-2.7 12.8-1.7 18.5.2Z"/><path fill="#725641" d="m158.3 197.1 1.2 1 1 .7c3.4 3 5.6 8.2 6 12.7.5 6-1 10.1-4.5 14.7l-1 1.2a37 37 0 0 1-22.5 11.1c-11 .6-21.5-1-30-8.5-4-3.8-7-8.5-6.5-14.5.5-6.2 3-11.7 7.5-16 13.4-11 34.6-13.3 48.8-2.4Z"/><path fill="#A27B5C" d="m197.3 172.9 1.3.4c5.1 1.7 9.2 4.6 13.3 8l.9.6c6.6 5.3 12 14 13.3 22.4.3 4.3.1 8.3-2 12.2l-1.4 1.5-.9-1.3a62 62 0 0 0-29.2-21.6 34 34 0 0 1-17.3-15.8c-.6-1.6-.6-2.3 0-4 5.4-5.8 15.1-4.7 22-2.4ZM170.9 184.7c1.3 1.2 2.5 2.6 3.6 4 5 6.6 11.4 10 18.8 13.3 9 4.1 19.4 9.7 24 19v1c-4.1 2-11.1 1.5-15.5.4l-2.6-1-.9-.4a45.3 45.3 0 0 1-25-23.3 27.3 27.3 0 0 1-2.4-10.5v-2.5Z"/><path fill="#413125" d="m162.1 206.6 1 .2c1.5.4 2.3.7 3.1 2 .3 1.5.4 2.7.4 4.2v1.4l-.1 1.1-1-.4c-11.5-4.5-21-1.6-32 2.6a57.4 57.4 0 0 1-20.6 3.8h-1.4c-3.1 0-6-.3-9-1-.4-1.7-.5-3.1-.5-4.8V213c.5 0 .9.2 1.3.3 11.2 2.7 21.6.2 32.2-3.8l1.4-.5 2.8-1c7.2-2.8 14.9-3.3 22.4-1.5Z"/><path fill="#725641" d="M169.4 182.2c1 .8 1 .8 2 2v2.5c-.3 8.2 4.3 15.7 9.5 21.7 6.4 6.8 15.3 13.4 25 14h5.3c2.2 0 4.4 0 6.6-.5-.1 1.2-.1 1.2-.5 2.5-4.7 3.5-11 4-16.6 3.4a39 39 0 0 1-20.2-9.3l-.9-.9c-2-1.7-3.4-3.3-4.8-5.5l-1-1.6a34 34 0 0 1-6.3-23.4c.4-1.7 1-3.3 2-4.9Z"/><path fill="#905C09" d="m171.9 178.3-.4.8a138 138 0 0 0-1.9 3.9l-.6 1.4c-2 4.4-1.6 10.9 0 15.5l.4 1.4c1.2 3.5 2.8 6.5 5 9.5l2.4 3.8h-10.3l-.4-3c-.3-2-.7-3.8-1.6-5.7-1-2.3-1.3-4-1.4-6.5v-1c-.4-6.8.4-12.2 4.9-17.7 2.4-2.4 2.4-2.4 3.9-2.4Z"/><path fill="#31251C" d="M102 213c6.2.9 6.3 1 7.7 2.3l.7 2.7.3 1.7.1 1.2H106.5c-1.4 0-2.7 0-4-.4-1-1.5-1-3.2-.8-5 0-.5.3-.8.3-1.3V213Z"/><path fill="#905C09" d="m110.8 198.9-1.2.9A22 22 0 0 0 103 211l-1 3h-3.9c.8-5.7 3-9.6 7.4-13.3 3.4-2.6 3.4-2.6 5.3-2ZM166 208.2a8.8 8.8 0 0 1 2.4 3.5c.5 1 .5 1 1.5 1.9 2.3.5 4.5.5 6.9.5v.5h-10.3l-.5-6.4Z"/><path fill="#905C09" d="m109.4 198.4 1.4.5-2.2 1.7c-.8.8-.8.8-1.7 2.2H104c1.7-1.8 3.3-3.2 5.4-4.4Z"/></g><path fill="#FCEBCF" d="M134.2 89.2C139.8 79 150.7 73 157 64c6.7-9.5 3-27.1-16-27.1-12.4 0-18.5 9.4-21 17.1l-19-8a41.5 41.5 0 0 1 40-29c17.2 0 29 7.8 35 17.7 5.1 8.4 8.1 24.2.2 36-8.8 12.9-17.2 16.8-21.8 25.2-1.8 3.4-2.5 5.6-2.5 16.4h-21.2c-.1-5.7-1-15 3.5-23Zm21.5 52.5a14.7 14.7 0 0 1-29.3 0c0-8.1 6.5-14.7 14.6-14.7 8 0 14.7 6.6 14.7 14.7Z"/></g><defs><clipPath id="a"><path fill="#fff" d="M0 0h250v250H0z"/></clipPath><clipPath id="b"><path fill="#fff" d="M0 42h250v200H0z"/></clipPath></defs></svg>