<svg xmlns="http://www.w3.org/2000/svg" width="90" height="90" fill="none"><circle cx="45" cy="45" r="44" fill="#22D7A6"/><g clip-path="url(#a)"><path fill="#fff" d="M45.4 29.5c-.3-.1-.5-.1-.8 0l-13.4 5.4 5.4 2.1 13.8-5.5-5-2Zm8 3.2-13.8 5.5 5.4 2.2L58.8 35l-5.4-2.2Zm7.4 3.8L46 42.4v17.8l14.6-5.8V36.5Zm-17 23.7V42.4l-14.5-5.9v17.9l14.6 5.8Zm0-32.8c.8-.3 1.6-.3 2.5 0l16 6.4a1.1 1.1 0 0 1 .7 1v19.6a2.3 2.3 0 0 1-1.4 2L45.4 63c-.3.1-.5.1-.8 0l-16.2-6.4a2.2 2.2 0 0 1-1.4-2.1V34.9a1.1 1.1 0 0 1 .7-1l16-6.5Z"/></g><circle cx="59" cy="55" r="8" fill="#22D7A6" stroke="#fff" stroke-width="2"/><path stroke="#fff" stroke-width="2" d="M59 51v8M55 55h8"/><defs><clipPath id="a"><path fill="#fff" d="M27 27h36v36H27z"/></clipPath></defs></svg>